# Blender 3.5.0
# www.blender.org
mtllib blackpen.mtl
o Cone.001
v -76.748772 12.215413 -3.906749
v -76.331284 12.215413 -3.733820
v -76.158356 12.215413 -3.316333
v -76.331284 12.215413 -2.898845
v -76.748772 12.215413 -2.725916
v -77.166260 12.215413 -2.898845
v -77.339188 12.215413 -3.316333
v -77.166260 12.215413 -3.733820
v -76.748772 14.630458 -3.316333
v -76.748772 12.215413 -3.965179
v -76.289970 12.215413 -3.775136
v -76.099922 12.215413 -3.316333
v -76.289970 12.215413 -2.857529
v -76.748772 12.215413 -2.667486
v -77.207573 12.215413 -2.857529
v -77.397621 12.215413 -3.316333
v -77.207573 12.215413 -3.775136
v -76.748772 7.364388 -3.965179
v -76.289970 7.364388 -3.775136
v -76.099922 7.364388 -3.316333
v -76.289970 7.364388 -2.857529
v -76.748772 7.364388 -2.667486
v -77.207573 7.364388 -2.857529
v -77.397621 7.364388 -3.316333
v -77.207573 7.364388 -3.775136
v -76.748772 7.220434 -3.906526
v -76.331444 7.220434 -3.733663
v -76.158577 7.220434 -3.316333
v -76.331444 7.220434 -2.899003
v -76.748772 7.220434 -2.726139
v -77.166100 7.220434 -2.899003
v -77.338966 7.220434 -3.316333
v -77.166100 7.220434 -3.733663
v -76.748779 -1.038145 -3.906526
v -76.331444 -1.038145 -3.733663
v -76.158585 -1.038145 -3.316333
v -76.331444 -1.038145 -2.899003
v -76.748779 -1.038145 -2.726139
v -77.166107 -1.038145 -2.899003
v -77.338966 -1.038145 -3.316333
v -77.166107 -1.038145 -3.733663
v -76.748779 -1.238082 -3.948199
v -76.301979 -1.238082 -3.763130
v -76.116913 -1.238082 -3.316333
v -76.301979 -1.238082 -2.869535
v -76.748779 -1.238082 -2.684466
v -77.195572 -1.238082 -2.869535
v -77.380646 -1.238082 -3.316333
v -77.195572 -1.238082 -3.763130
v -76.748779 -4.537026 -3.948199
v -76.301979 -4.537026 -3.763130
v -76.116913 -4.537026 -3.316333
v -76.301979 -4.537026 -2.869535
v -76.748779 -4.537026 -2.684466
v -77.195572 -4.537026 -2.869535
v -77.380646 -4.537026 -3.316333
v -77.195572 -4.537026 -3.763130
v -76.748779 -4.676982 -3.773903
v -76.425224 -4.676982 -3.639884
v -76.291206 -4.676982 -3.316333
v -76.425224 -4.676982 -2.992781
v -76.748779 -4.676982 -2.858762
v -77.072327 -4.676982 -2.992781
v -77.206345 -4.676982 -3.316333
v -77.072327 -4.676982 -3.639884
v -76.748779 -5.896590 -3.773903
v -76.425224 -5.896590 -3.639884
v -76.291206 -5.896590 -3.316333
v -76.425224 -5.896590 -2.992781
v -76.748779 -5.896590 -2.858762
v -77.072327 -5.896590 -2.992781
v -77.206345 -5.896590 -3.316333
v -77.072327 -5.896590 -3.639884
v -76.748779 -6.056539 -3.654095
v -76.509941 -6.056539 -3.555166
v -76.411018 -6.056539 -3.316333
v -76.509941 -6.056539 -3.077499
v -76.748779 -6.056539 -2.978570
v -76.987610 -6.056539 -3.077499
v -77.086540 -6.056539 -3.316333
v -76.987610 -6.056539 -3.555166
v -76.286362 -4.178847 -2.831840
v -76.733162 -4.178847 -2.646770
v -76.286362 -4.537026 -2.831840
v -76.733162 -4.537026 -2.646770
v -76.265266 -4.178847 -2.780911
v -76.712067 -4.178847 -2.595842
v -76.265266 -4.537026 -2.780911
v -76.712067 -4.537026 -2.595842
v -76.237465 -4.178847 -2.713785
v -76.684265 -4.178847 -2.528716
v -76.237465 -4.318606 -2.713785
v -76.684265 -4.318606 -2.528716
v -76.265266 -0.181783 -2.780911
v -76.712067 -0.181783 -2.595842
v -76.237465 -0.181783 -2.713785
v -76.684265 -0.181783 -2.528716
v -76.748772 12.215413 -3.906749
v -76.331284 12.215413 -3.733820
v -76.158356 12.215413 -3.316333
v -76.331284 12.215413 -2.898845
v -76.748772 12.215413 -2.725916
v -77.166260 12.215413 -2.898845
v -77.339188 12.215413 -3.316333
v -77.166260 12.215413 -3.733820
v -76.748772 7.220434 -3.906526
v -76.331444 7.220434 -3.733663
v -76.158577 7.220434 -3.316333
v -76.331444 7.220434 -2.899003
v -76.748772 7.220434 -2.726139
v -77.166100 7.220434 -2.899003
v -77.338966 7.220434 -3.316333
v -77.166100 7.220434 -3.733663
v -76.748779 -1.038145 -3.906526
v -76.331444 -1.038145 -3.733663
v -76.158585 -1.038145 -3.316333
v -76.331444 -1.038145 -2.899003
v -76.748779 -1.038145 -2.726139
v -77.166107 -1.038145 -2.899003
v -77.338966 -1.038145 -3.316333
v -77.166107 -1.038145 -3.733663
v -76.748779 -4.676982 -3.773903
v -76.425224 -4.676982 -3.639884
v -76.291206 -4.676982 -3.316333
v -76.425224 -4.676982 -2.992781
v -76.748779 -4.676982 -2.858762
v -77.072327 -4.676982 -2.992781
v -77.206345 -4.676982 -3.316333
v -77.072327 -4.676982 -3.639884
vn -0.0000 0.2375 -0.9714
vn -0.0000 1.0000 -0.0000
vn 0.6869 0.2375 -0.6869
vn 0.9714 0.2375 -0.0000
vn 0.6869 0.2375 0.6869
vn -0.0000 0.2375 0.9714
vn -0.6869 0.2375 0.6869
vn -0.9714 0.2375 -0.0000
vn 0.7764 0.6303 -0.0000
vn 0.5490 0.6303 -0.5490
vn -0.6869 0.2375 -0.6869
vn -0.5490 0.6303 -0.5490
vn -0.0000 0.6303 -0.7764
vn -0.0000 -0.1840 -0.9829
vn -0.6950 -0.1840 -0.6950
vn -0.7764 0.6303 -0.0000
vn -0.5490 0.6303 0.5490
vn -0.0000 0.6303 0.7764
vn 0.5490 0.6303 0.5490
vn -0.0000 -0.1840 0.9829
vn -0.6950 -0.1840 0.6950
vn -0.6548 -0.3773 0.6548
vn -0.0000 -0.3773 0.9261
vn -0.9829 -0.1840 -0.0000
vn 0.6950 -0.1840 0.6950
vn 0.9829 -0.1840 -0.0000
vn 0.6950 -0.1840 -0.6950
vn -1.0000 -0.0000 -0.0000
vn -0.7071 -0.0000 -0.7071
vn 0.6548 -0.3773 0.6548
vn 0.9261 -0.3773 -0.0000
vn 0.6548 -0.3773 -0.6548
vn -0.0000 -0.3773 -0.9261
vn -0.6548 -0.3773 -0.6548
vn -0.9261 -0.3773 -0.0000
vn -0.6922 0.2040 0.6922
vn -0.9790 0.2041 -0.0000
vn -0.9950 0.1001 -0.0000
vn -0.7036 0.1001 0.7036
vn -0.0000 -0.0000 1.0000
vn -0.7071 -0.0000 0.7071
vn 1.0000 -0.0000 -0.0000
vn 0.7071 -0.0000 0.7071
vn -0.0000 -0.0000 -1.0000
vn 0.7071 -0.0000 -0.7071
vn -0.0000 0.1001 -0.9950
vn 0.7036 0.1001 -0.7036
vn 0.6493 -0.3959 -0.6493
vn -0.0000 -0.3959 -0.9183
vn 0.6922 0.2040 0.6922
vn -0.0000 0.2040 0.9790
vn -0.0023 0.1038 0.9946
vn 0.7049 0.1038 0.7017
vn 0.6922 0.2040 -0.6922
vn 0.9790 0.2040 -0.0000
vn 0.9950 0.1001 -0.0000
vn -0.6922 0.2040 -0.6922
vn -0.7036 0.1001 -0.7036
vn -0.0000 0.2040 -0.9790
vn -0.9183 -0.3959 -0.0000
vn -0.6493 -0.3959 -0.6493
vn -0.4427 -0.7797 -0.4427
vn -0.6261 -0.7797 -0.0000
vn -0.6493 -0.3959 0.6493
vn -0.3796 -0.6444 0.6638
vn -0.6533 -0.7071 0.2706
vn -0.7186 0.3060 0.6244
vn 0.9183 -0.3959 -0.0000
vn 0.7378 -0.6445 0.2009
vn 0.9555 -0.2950 -0.0000
vn 0.6756 -0.2950 -0.6756
vn -0.4427 -0.7797 0.4427
vn -0.0000 -0.7797 0.6261
vn 0.4427 -0.7797 0.4427
vn 0.6261 -0.7797 -0.0000
vn 0.4427 -0.7797 -0.4427
vn -0.0000 -0.7797 -0.6261
vn -0.6756 -0.2950 -0.6756
vn -0.0000 -0.2950 -0.9555
vn -0.0000 -0.8494 -0.5278
vn -0.3732 -0.8494 -0.3732
vn -0.9555 -0.2950 -0.0000
vn -0.6756 -0.2950 0.6756
vn -0.0000 -0.2950 0.9555
vn 0.6756 -0.2950 0.6756
vn 0.3732 -0.8494 -0.3732
vn 0.5277 -0.8494 -0.0000
vn 0.3732 -0.8494 0.3732
vn -0.0000 -0.8494 0.5278
vn -0.3732 -0.8494 0.3732
vn -0.5278 -0.8494 -0.0000
vn -0.3710 -0.6512 0.6620
vn -0.9511 0.3015 0.0676
vn 0.9497 0.3060 -0.0667
vn 0.6533 -0.7071 -0.2706
vn 0.7203 0.3015 -0.6247
vn -0.7543 0.5774 -0.3125
vn 0.3125 0.5773 -0.7543
vn 0.7305 -0.6512 0.2058
vn 0.9239 -0.0000 0.3827
vn -0.3827 -0.0000 0.9239
vn -0.3422 -0.1183 0.9322
vn 0.9011 -0.1183 0.4172
vn -0.3125 0.5773 0.7543
vn 0.7543 0.5774 0.3125
vt 0.297661 0.826504
vt 0.297661 0.818040
vt 0.291676 0.812055
vt 0.283212 0.812055
vt 0.277227 0.818040
vt 0.277227 0.826504
vt 0.283212 0.832489
vt 0.291676 0.832489
vt 0.283054 0.874466
vt 0.297960 0.799354
vt 0.295327 0.793627
vt 0.289412 0.845921
vt 0.283054 0.827973
vt 0.273694 0.813914
vt 0.306508 0.799354
vt 0.280863 0.845921
vt 0.298672 0.826923
vt 0.433607 0.789963
vt 0.298672 0.817621
vt 0.433607 0.797605
vt 0.292095 0.811044
vt 0.433607 0.805248
vt 0.282793 0.811044
vt 0.433607 0.812891
vt 0.276216 0.817621
vt 0.433607 0.820533
vt 0.433607 0.759392
vt 0.276216 0.826922
vt 0.433607 0.767034
vt 0.282793 0.833500
vt 0.433607 0.774677
vt 0.292095 0.833500
vt 0.433607 0.782320
vt 0.358951 0.789963
vt 0.358951 0.797605
vt 0.358951 0.805248
vt 0.358951 0.812891
vt 0.358951 0.759392
vt 0.358951 0.820533
vt 0.358951 0.767035
vt 0.358951 0.774677
vt 0.358951 0.782320
vt 0.379866 0.565850
vt 0.379866 0.559467
vt 0.379866 0.553083
vt 0.379866 0.546700
vt 0.379866 0.591384
vt 0.379866 0.540316
vt 0.379866 0.585001
vt 0.379866 0.578617
vt 0.356584 0.782665
vt 0.356584 0.781975
vt 0.445550 0.528725
vt 0.454094 0.530799
vt 0.462494 0.532623
vt 0.470978 0.533881
vt 0.479678 0.533881
vt 0.412088 0.519365
vt 0.420214 0.522169
vt 0.496574 0.578617
vt 0.437024 0.526716
vt 0.444628 0.532557
vt 0.453243 0.534544
vt 0.461818 0.536328
vt 0.470671 0.537802
vt 0.291789 0.804434
vt 0.287464 0.829082
vt 0.410548 0.522995
vt 0.479985 0.537802
vt 0.419092 0.525788
vt 0.427570 0.528237
vt 0.436098 0.530392
vt 0.430578 0.591534
vt 0.439529 0.593624
vt 0.448486 0.595661
vt 0.457256 0.597628
vt 0.300050 0.786866
vt 0.287345 0.768800
vt 0.291789 0.854416
vt 0.289205 0.768800
vt 0.394847 0.582570
vt 0.300050 0.777808
vt 0.278287 0.768800
vt 0.403774 0.584898
vt 0.412702 0.587170
vt 0.421637 0.589383
vt 0.305992 0.822420
vt 0.305992 0.828980
vt 0.448828 0.599801
vt 0.446352 0.599331
vt 0.305992 0.842099
vt 0.305992 0.796183
vt 0.305992 0.848658
vt 0.305992 0.802742
vt 0.305992 0.809302
vt 0.305992 0.815861
vt 0.283149 0.822420
vt 0.283149 0.828980
vt 0.283149 0.835539
vt 0.283149 0.842099
vt 0.283149 0.848658
vt 0.283149 0.796183
vt 0.283149 0.802742
vt 0.283149 0.809302
vt 0.283149 0.815861
vt 0.279505 0.821562
vt 0.267816 0.801883
vt 0.279505 0.823279
vt 0.267816 0.797041
vt 0.279505 0.829839
vt 0.279505 0.828121
vt 0.271240 0.793618
vt 0.279505 0.834681
vt 0.279505 0.836398
vt 0.276082 0.793618
vt 0.279505 0.842958
vt 0.279505 0.841240
vt 0.279505 0.847800
vt 0.279505 0.797041
vt 0.279505 0.803601
vt 0.279505 0.801883
vt 0.276082 0.805307
vt 0.279505 0.808443
vt 0.279505 0.810160
vt 0.279505 0.816720
vt 0.271240 0.805307
vt 0.279505 0.815002
vt 0.470671 0.594445
vt 0.292567 0.847589
vt 0.289954 0.775374
vt 0.479985 0.594445
vt 0.292567 0.854416
vt 0.287345 0.769564
vt 0.289954 0.768800
vt 0.278287 0.769564
vt 0.470671 0.595507
vt 0.293618 0.847589
vt 0.479985 0.595507
vt 0.290966 0.775374
vt 0.293618 0.854416
vt 0.287345 0.770596
vt 0.278287 0.770596
vt 0.290966 0.768800
vt 0.287345 0.777525
vt 0.295002 0.847589
vt 0.292299 0.775374
vt 0.278287 0.777525
vt 0.295002 0.850253
vt 0.287345 0.774908
vt 0.278287 0.774908
vt 0.292299 0.772808
vt 0.470671 0.672488
vt 0.287345 0.853752
vt 0.293618 0.771408
vt 0.479985 0.672488
vt 0.278287 0.853752
vt 0.290966 0.848734
vt 0.287345 0.852391
vt 0.295002 0.771408
vt 0.292299 0.848734
vt 0.278287 0.852391
vt 0.287286 0.828092
vt 0.272435 0.800124
vt 0.278822 0.828092
vt 0.289531 0.845151
vt 0.297960 0.845921
vt 0.286899 0.839424
vt 0.295327 0.840193
vt 0.289412 0.799354
vt 0.280983 0.800124
vt 0.287286 0.781600
vt 0.278822 0.781600
vt 0.277926 0.767540
vt 0.269462 0.767540
vt 0.298079 0.845151
vt 0.306508 0.845921
vt 0.280863 0.799354
vt 0.356584 0.790308
vt 0.356584 0.789617
vt 0.356584 0.797260
vt 0.356584 0.797951
vt 0.356584 0.805593
vt 0.356584 0.804902
vt 0.356584 0.812545
vt 0.356584 0.813236
vt 0.356584 0.759737
vt 0.356584 0.820188
vt 0.356584 0.766689
vt 0.356584 0.767380
vt 0.356584 0.774332
vt 0.356584 0.775023
vt 0.379866 0.572234
vt 0.496574 0.565850
vt 0.496574 0.559467
vt 0.496574 0.553083
vt 0.496574 0.546700
vt 0.496574 0.591384
vt 0.496574 0.540316
vt 0.496574 0.585001
vt 0.428593 0.524459
vt 0.496574 0.572234
vt 0.430891 0.595771
vt 0.428396 0.595182
vt 0.437373 0.597285
vt 0.439866 0.597856
vt 0.305992 0.835539
vt 0.455179 0.601225
vt 0.304046 0.785617
vt 0.395051 0.586830
vt 0.304046 0.779057
vt 0.401515 0.588516
vt 0.404003 0.589150
vt 0.412958 0.591417
vt 0.410468 0.590796
vt 0.419429 0.593019
vt 0.421921 0.593624
s 1
usemtl Material.001
f 98/162/1 9/9/2 99/164/3
f 99/165/3 9/10/2 100/166/4
f 100/167/4 9/11/2 101/168/5
f 101/169/5 9/12/2 102/170/6
f 102/171/6 9/13/2 103/172/7
f 103/173/7 9/14/2 104/174/8
f 2/2/2 3/3/2 12/21/9 11/19/10
f 104/175/8 9/15/2 105/176/11
f 105/177/11 9/16/2 98/163/1
f 17/33/12 10/18/13 18/34/14 25/42/15
f 8/8/2 1/1/2 10/17/13 17/32/12
f 7/7/2 8/8/2 17/32/12 16/30/16
f 6/6/2 7/7/2 16/30/16 15/28/17
f 1/1/2 2/2/2 11/19/10 10/17/13
f 5/5/2 6/6/2 15/28/17 14/25/18
f 4/4/2 5/5/2 14/25/18 13/23/19
f 3/3/2 4/4/2 13/23/19 12/21/9
f 22/38/20 23/40/21 111/188/22 110/186/23
f 15/29/17 16/31/16 24/41/24 23/40/21
f 13/24/19 14/26/18 22/39/20 21/37/25
f 11/20/10 12/22/9 20/36/26 19/35/27
f 16/31/16 17/33/12 25/42/15 24/41/24
f 14/27/18 15/29/17 23/40/21 22/38/20
f 12/22/9 13/24/19 21/37/25 20/36/26
f 10/18/13 11/20/10 19/35/27 18/34/14
f 32/50/28 113/192/29 121/201/29 40/60/28
f 20/36/26 21/37/25 109/184/30 108/182/31
f 18/34/14 19/35/27 107/180/32 106/178/33
f 25/42/15 18/34/14 106/179/33 33/51/34
f 23/40/21 24/41/24 112/190/35 111/189/22
f 21/37/25 22/39/20 110/187/23 109/185/30
f 19/35/27 20/36/26 108/183/31 107/181/32
f 24/41/24 25/42/15 33/52/34 112/191/35
f 39/59/36 120/200/37 48/71/38 47/70/39
f 30/47/40 31/49/41 119/199/41 118/197/40
f 28/45/42 29/46/43 117/196/43 116/195/42
f 26/43/44 27/44/45 115/194/45 114/193/44
f 113/192/29 26/43/44 114/193/44 121/201/29
f 31/49/41 32/50/28 40/60/28 119/199/41
f 29/46/43 30/48/40 118/198/40 117/196/43
f 27/44/45 28/45/42 116/195/42 115/194/45
f 42/62/46 43/63/47 51/74/48 50/73/49
f 37/56/50 38/57/51 46/69/52 45/65/53
f 35/54/54 36/55/55 44/64/56 43/63/47
f 120/200/37 41/61/57 49/72/58 48/71/38
f 38/58/51 39/59/36 47/70/39 46/68/52
f 36/55/55 37/56/50 45/65/53 44/64/56
f 34/53/59 35/54/54 43/63/47 42/62/46
f 41/61/57 34/53/59 42/62/46 49/72/58
f 56/85/60 57/86/61 129/215/62 128/213/63
f 49/72/58 42/62/46 50/73/49 57/86/61
f 47/70/39 48/71/38 56/85/60 55/84/64
f 46/67/52 54/80/65 85/134/66 83/130/67
f 43/63/47 44/64/56 52/75/68 51/74/48
f 48/71/38 49/72/58 57/86/61 56/85/60
f 46/68/52 47/70/39 55/84/64 54/81/65
f 44/64/56 45/65/53 53/76/69 52/75/68
f 59/88/45 124/206/42 68/99/70 67/98/71
f 54/81/65 55/84/64 127/211/72 126/209/73
f 52/75/68 53/76/69 125/207/74 60/89/75
f 50/73/49 51/74/48 123/204/76 122/202/77
f 57/86/61 50/73/49 122/203/77 129/216/62
f 55/84/64 56/85/60 128/214/63 127/212/72
f 53/77/69 54/82/65 126/210/73 125/208/74
f 51/74/48 52/75/68 60/90/75 123/205/76
f 73/105/78 66/97/79 74/106/80 81/125/81
f 64/95/28 65/96/29 73/105/78 72/104/82
f 62/92/40 63/94/41 71/103/83 70/102/84
f 124/206/42 61/91/43 69/100/85 68/99/70
f 58/87/44 59/88/45 67/98/71 66/97/79
f 65/96/29 58/87/44 66/97/79 73/105/78
f 63/94/41 64/95/28 72/104/82 71/103/83
f 61/91/43 62/93/40 70/101/84 69/100/85
f 74/107/80 75/109/86 76/112/87 77/115/88 78/119/89 79/121/90 80/122/91 81/126/81
f 71/103/83 72/104/82 80/123/91 79/120/90
f 69/100/85 70/101/84 78/118/89 77/116/88
f 67/98/71 68/99/70 76/113/87 75/110/86
f 72/104/82 73/105/78 81/127/81 80/124/91
f 70/102/84 71/103/83 79/121/90 78/119/89
f 68/99/70 69/100/85 77/117/88 76/114/87
f 66/97/79 67/98/71 75/111/86 74/108/80
f 83/130/67 85/134/66 89/143/92 87/139/93
f 45/65/53 46/69/52 83/131/67 82/128/94
f 54/83/65 53/78/69 84/133/95 85/135/66
f 53/79/69 45/66/53 82/129/94 84/132/95
f 86/136/96 87/138/93 95/155/97 94/152/98
f 82/128/94 83/131/67 87/138/93 86/136/96
f 84/132/95 82/129/94 86/137/96 88/140/99
f 85/135/66 84/133/95 88/141/99 89/142/92
f 90/144/100 91/147/101 93/150/102 92/149/103
f 88/140/99 86/137/96 90/145/100 92/148/103
f 89/142/92 88/141/99 92/149/103 93/150/102
f 87/139/93 89/143/92 93/151/102 91/146/101
f 94/153/98 95/156/97 97/161/104 96/158/105
f 87/139/93 91/146/101 97/160/104 95/157/97
f 91/147/101 90/144/100 96/158/105 97/161/104
f 90/145/100 86/137/96 94/154/98 96/159/105
