# Blender 3.5.0
# www.blender.org
mtllib stapler.mtl
o Cube.001
v -65.314224 -12.512468 1.880785
v -65.199722 -10.507256 1.880785
v -65.314224 -12.512468 -1.880789
v -65.199722 -10.507256 -1.880789
v -64.143394 -12.579328 1.880785
v -64.247971 -10.920362 1.880785
v -64.143394 -12.579328 -1.880789
v -64.247971 -10.920362 -1.880789
v -67.080116 -12.411629 1.880785
v -66.946701 -10.075312 1.880785
v -67.080116 -12.411629 -1.880789
v -66.946701 -10.075312 -1.880789
v -70.749847 -12.202071 1.880785
v -70.600677 -9.589834 1.880785
v -70.749847 -12.202071 -1.880789
v -70.600677 -9.589834 -1.880789
v -83.597267 -11.359116 1.880785
v -83.380302 -8.529294 1.880785
v -83.597267 -11.359116 -1.880789
v -83.380302 -8.529294 -1.880789
v -84.040222 -11.325154 1.880785
v -83.837448 -8.743662 1.880785
v -84.040222 -11.325154 -1.880789
v -83.837448 -8.743662 -1.880789
v -68.353729 -12.338900 -1.555639
v -68.353729 -12.338900 1.555635
v -71.389046 -12.165571 -1.555639
v -71.389046 -12.165571 1.555635
v -83.247726 -11.379076 -1.555639
v -83.247726 -11.379076 1.555635
v -68.417015 -13.447060 -1.555639
v -68.417015 -13.447060 1.555635
v -71.452324 -13.273730 -1.555639
v -71.452324 -13.273730 1.555635
v -83.327721 -12.780020 -1.555639
v -83.327721 -12.780020 1.555635
v -65.182190 -10.311436 1.765531
v -65.182190 -10.311436 -1.765535
v -64.458565 -10.724543 -1.765535
v -64.458565 -10.724543 1.765531
v -66.929169 -9.879492 1.765531
v -66.929169 -9.879492 -1.765535
v -70.583153 -9.394014 1.765531
v -70.583153 -9.394014 -1.765535
v -83.362778 -8.333474 1.765531
v -83.362778 -8.333474 -1.765535
v -83.636742 -8.547841 1.765531
v -83.636742 -8.547841 -1.765535
v -71.389046 -12.165571 1.555635
v -71.389046 -12.165571 -1.555639
v -83.247726 -11.379076 -1.555639
v -83.247726 -11.379076 1.555635
v -71.452324 -13.273730 1.555635
v -71.452324 -13.273730 -1.555639
v -83.327721 -12.780020 -1.555639
v -83.327721 -12.780020 1.555635
v -83.327721 -12.780020 -1.555639
v -83.247726 -11.379076 -1.555639
v -83.247726 -11.379076 1.555635
v -83.327721 -12.780020 1.555635
v -70.364082 -14.599787 2.436937
v -69.544304 -11.674379 2.436937
v -70.364082 -14.599787 -2.436941
v -69.544304 -11.674379 -2.436941
v -63.770966 -14.599787 2.436937
v -64.040039 -11.674379 2.436937
v -63.770966 -14.599787 -2.436941
v -64.040039 -11.674379 -2.436941
v -70.364082 -15.401259 2.436937
v -70.364082 -15.401259 -2.436941
v -63.715694 -15.401259 2.436937
v -63.715694 -15.401259 -2.436941
v -84.576401 -14.599787 2.436937
v -84.576401 -14.599787 -2.436941
v -84.934578 -15.401259 2.436937
v -84.934578 -15.401259 -2.436941
v -70.364082 -14.599787 -2.436941
v -70.364082 -14.599787 2.436937
v -84.576401 -14.599787 -2.436941
v -84.576401 -14.599787 2.436937
v -70.364082 -14.599787 2.436937
v -69.544304 -11.674379 2.436937
v -69.544304 -11.674379 -2.436941
v -70.364082 -14.599787 -2.436941
v -83.776810 -14.567630 1.992947
v -81.752289 -14.567629 1.992947
v -81.752289 -14.567629 -1.992951
v -83.776810 -14.567630 -1.992951
v -64.040039 -11.674379 -2.436941
v -63.770966 -14.599787 -2.436941
v -64.040039 -11.674379 2.436937
v -63.770966 -14.599787 2.436937
v -63.715694 -15.401259 -2.436941
v -63.715694 -15.401259 -2.436941
v -70.364082 -15.401259 -2.436941
v -63.715694 -15.401259 2.436937
v -63.715694 -15.401259 2.436937
v -70.364082 -15.401259 2.436937
v -84.934578 -15.401259 -2.436941
v -84.934578 -15.401259 2.436937
v -63.581215 -14.599787 2.270550
v -63.581215 -14.599787 -2.270554
v -63.850288 -11.776798 -2.270554
v -63.850288 -11.776798 2.270550
v -63.525940 -15.401259 -2.270554
v -63.525940 -15.401259 2.270550
vn 0.1199 0.3030 -0.9454
vn -0.0403 -0.7060 -0.7071
vn 0.0514 0.2667 -0.9624
vn 0.6781 0.3403 -0.6514
vn 0.5821 -0.5786 -0.5713
vn 0.6781 0.3403 0.6514
vn 0.5821 -0.5786 0.5713
vn 0.1199 0.3030 0.9454
vn -0.0403 -0.7060 0.7071
vn -0.1142 0.3501 -0.9297
vn -0.6820 0.3393 -0.6479
vn -0.5749 0.7476 -0.3326
vn -0.2329 0.8754 -0.4236
vn 0.0286 0.2643 -0.9640
vn 0.0932 0.8646 -0.4938
vn 0.0514 0.2667 0.9624
vn 0.3221 0.8348 -0.4464
vn 0.5134 0.7780 -0.3623
vn -0.0413 -0.7067 -0.7064
vn -0.0487 -0.7063 -0.7062
vn 0.2495 -0.9203 0.3015
vn 0.2495 -0.9203 -0.3015
vn 0.0286 0.2643 0.9640
vn -0.0413 -0.7067 0.7064
vn 0.5134 0.7780 0.3623
vn -0.1142 0.3501 0.9297
vn -0.0487 -0.7063 0.7062
vn 0.1616 0.8572 0.4889
vn 0.0932 0.8646 0.4938
vn -0.0645 -0.9979 -0.0033
vn -0.6203 -0.5310 0.5773
vn -0.6820 0.3393 0.6479
vn -0.6203 -0.5310 -0.5773
vn -0.0000 -0.0000 -1.0000
vn 0.5435 -0.6093 -0.5774
vn -0.0615 -0.9981 -0.0020
vn -0.0615 -0.9981 0.0020
vn -0.0645 -0.9979 0.0033
vn 0.5435 -0.6093 0.5774
vn -0.0493 -0.9988 -0.0000
vn -0.0415 -0.9991 -0.0000
vn -0.0000 -0.0000 1.0000
vn -0.9984 0.0570 -0.0000
vn 0.3221 0.8348 0.4464
vn 0.1616 0.8572 -0.4889
vn -0.2329 0.8754 0.4236
vn -0.5749 0.7476 0.3326
vn -0.9629 0.2698 -0.0000
vn -0.6042 0.7968 -0.0000
vn 0.6675 0.0625 -0.7420
vn 0.4156 0.8614 -0.2921
vn 0.4156 0.8614 0.2921
vn -0.0000 -1.0000 -0.0000
vn 0.8277 0.4657 0.3132
vn 0.8277 0.4657 -0.3132
vn -0.5655 0.2527 0.7851
vn -0.5655 0.2527 -0.7851
vn -0.7365 0.3292 -0.5909
vn -0.7365 0.3292 0.5909
vn 0.8375 -0.0008 0.5465
vn -0.7588 -0.0130 0.6511
vn -0.7588 -0.0130 -0.6511
vn 0.8375 -0.0008 -0.5465
vn 0.0007 0.9994 0.0357
vn 0.0007 0.9994 -0.0357
vn -0.0133 0.9995 -0.0303
vn -0.0133 0.9995 0.0303
vn 0.9100 0.0743 -0.4079
vn 0.9100 0.0743 0.4079
vn 0.7303 -0.6012 0.3245
vn 0.7303 -0.6012 -0.3245
vn 0.6675 0.0625 0.7420
vn 0.6586 0.0454 0.7511
vn 0.6586 0.0454 -0.7511
vt 0.484601 0.585774
vt 0.442909 0.512961
vt 0.477320 0.585603
vt 0.495654 0.512960
vt 0.429172 0.512961
vt 0.488373 0.513131
vt 0.480514 0.590628
vt 0.484518 0.590628
vt 0.442909 0.508107
vt 0.474445 0.590628
vt 0.442909 0.508107
vt 0.478549 0.589664
vt 0.495571 0.508107
vt 0.480514 0.606200
vt 0.429172 0.508107
vt 0.474445 0.606200
vt 0.489603 0.509071
vt 0.456646 0.508107
vt 0.484726 0.578454
vt 0.442909 0.520283
vt 0.476242 0.578254
vt 0.495779 0.520281
vt 0.429172 0.520283
vt 0.487296 0.520480
vt 0.484985 0.563241
vt 0.442909 0.535498
vt 0.475500 0.563018
vt 0.496039 0.535494
vt 0.429172 0.535498
vt 0.486554 0.535717
vt 0.485499 0.509946
vt 0.442909 0.588786
vt 0.475208 0.509933
vt 0.496552 0.588789
vt 0.429172 0.588786
vt 0.486262 0.588802
vt 0.413213 0.595935
vt 0.442909 0.590624
vt 0.485499 0.508107
vt 0.476110 0.508115
vt 0.422592 0.595935
vt 0.413213 0.611508
vt 0.429172 0.590624
vt 0.496552 0.590628
vt 0.487163 0.590620
vt 0.422592 0.611508
vt 0.430359 0.525564
vt 0.585261 0.820654
vt 0.424414 0.608815
vt 0.441721 0.525564
vt 0.566498 0.592836
vt 0.424414 0.595935
vt 0.430359 0.538149
vt 0.566554 0.639245
vt 0.561441 0.700345
vt 0.561441 0.747841
vt 0.570421 0.820654
vt 0.587381 0.820218
vt 0.428448 0.608815
vt 0.545483 0.820218
vt 0.551657 0.592836
vt 0.428448 0.595935
vt 0.587381 0.773811
vt 0.551713 0.639245
vt 0.580126 0.700345
vt 0.580126 0.747841
vt 0.443330 0.512266
vt 0.476557 0.585617
vt 0.456225 0.512266
vt 0.487610 0.513118
vt 0.488903 0.509998
vt 0.456225 0.509076
vt 0.443330 0.509076
vt 0.477849 0.588736
vt 0.443330 0.519669
vt 0.475479 0.578268
vt 0.456225 0.519669
vt 0.486533 0.520466
vt 0.443330 0.534928
vt 0.474737 0.563032
vt 0.456225 0.534928
vt 0.485790 0.535703
vt 0.424414 0.596412
vt 0.443330 0.587959
vt 0.474445 0.509947
vt 0.485499 0.588788
vt 0.424414 0.611030
vt 0.456225 0.587959
vt 0.475296 0.508885
vt 0.423442 0.596412
vt 0.486350 0.589850
vt 0.423442 0.611030
vt 0.441721 0.538149
vt 0.585317 0.774246
vt 0.430359 0.587337
vt 0.441721 0.587337
vt 0.545483 0.773811
vt 0.570477 0.774246
vt 0.587381 0.592368
vt 0.545483 0.592368
vt 0.568234 0.592837
vt 0.586996 0.592836
vt 0.568234 0.820654
vt 0.549472 0.820654
vt 0.456646 0.566889
vt 0.402143 0.571776
vt 0.474445 0.566889
vt 0.415657 0.532266
vt 0.412751 0.595699
vt 0.402143 0.594559
vt 0.447809 0.591262
vt 0.447861 0.603341
vt 0.446971 0.591458
vt 0.415657 0.568416
vt 0.429172 0.535625
vt 0.449314 0.587959
vt 0.448622 0.603341
vt 0.449314 0.608137
vt 0.447861 0.587959
vt 0.456646 0.508107
vt 0.456646 0.625237
vt 0.474445 0.508107
vt 0.474445 0.625237
vt 0.400751 0.616045
vt 0.415657 0.508107
vt 0.400751 0.595868
vt 0.429172 0.595935
vt 0.426265 0.535633
vt 0.412751 0.568409
vt 0.397618 0.595868
vt 0.426265 0.594460
vt 0.397618 0.616045
vt 0.412751 0.509582
vt 0.413213 0.616112
vt 0.402143 0.616112
vt 0.429172 0.614055
vt 0.402143 0.595935
vt 0.446971 0.614055
vt 0.413213 0.595935
vt 0.679512 0.771541
vt 0.458267 0.621971
vt 0.624655 0.771541
vt 0.458267 0.613660
vt 0.624655 0.648084
vt 0.472824 0.613660
vt 0.679512 0.648084
vt 0.472824 0.621971
vt 0.415657 0.509483
vt 0.426265 0.508343
vt 0.429172 0.591458
vt 0.448622 0.587959
vt 0.448569 0.600039
vt 0.402143 0.595868
vt 0.429172 0.508107
vt 0.402143 0.568370
vt 0.384344 0.595868
vt 0.415657 0.595935
vt 0.384344 0.568370
vt 0.402143 0.508107
vt 0.384343 0.508107
vt 0.394685 0.595868
vt 0.447861 0.600029
vt 0.394685 0.614667
vt 0.447101 0.591272
vt 0.447186 0.602932
vt 0.446363 0.590624
vt 0.384344 0.614667
vt 0.429779 0.590624
vt 0.384343 0.595868
vt 0.447947 0.588369
vt 0.397618 0.614667
vt 0.448622 0.607448
vt 0.447154 0.587969
vt 0.397618 0.595868
vt 0.448622 0.588648
vt 0.447914 0.603331
s 1
usemtl Material.001
f 4/6/1 3/4/2 11/22/2 12/24/3
f 3/4/2 4/6/1 8/17/4 7/13/5
f 7/14/5 8/16/4 6/10/6 5/7/7
f 5/8/7 6/12/6 2/3/8 1/1/9
f 3/5/2 7/15/5 5/9/7 1/2/9
f 20/36/10 24/45/11 48/91/12 46/86/13
f 16/30/14 20/36/10 46/86/13 44/82/15
f 1/1/9 2/3/8 10/21/16 9/19/9
f 8/17/4 4/6/1 38/70/17 39/71/18
f 3/5/2 1/2/9 9/20/9 11/23/2
f 16/30/14 15/28/19 19/34/20 20/36/10
f 11/23/2 9/20/9 26/50/21 25/47/22
f 12/24/3 11/22/2 15/28/19 16/30/14
f 9/19/9 10/21/16 14/27/23 13/25/24
f 6/11/6 8/18/4 39/72/18 40/73/25
f 13/25/24 14/27/23 18/33/26 17/31/27
f 14/27/23 10/21/16 41/76/28 43/80/29
f 15/29/19 11/23/2 25/47/22 27/53/30
f 21/37/31 22/41/32 24/46/11 23/42/33
f 19/35/20 17/32/27 21/38/31 23/43/33
f 20/36/10 19/34/20 23/44/33 24/45/11
f 17/31/27 18/33/26 22/40/32 21/39/31
f 50/94/34 25/48/22 31/57/35 54/98/34
f 58/102/34 50/94/34 54/98/34 57/101/34
f 19/35/20 15/29/19 27/53/30 51/95/36
f 17/32/27 19/35/20 51/95/36 52/96/37
f 9/20/9 13/26/24 49/93/38 26/50/21
f 13/26/24 17/32/27 52/96/37 49/93/38
f 31/58/35 32/60/39 53/97/40 33/63/40
f 33/63/40 53/97/40 56/100/41 55/99/41
f 28/54/42 59/103/42 60/104/42 34/64/42
f 30/56/43 29/55/43 35/65/43 36/66/43
f 26/51/21 28/54/42 34/64/42 32/61/39
f 25/49/22 26/52/21 32/62/39 31/59/35
f 39/72/18 38/69/17 37/67/44 40/73/25
f 41/75/28 42/77/45 44/81/15 43/79/29
f 37/67/44 38/69/17 42/77/45 41/75/28
f 45/83/46 46/87/13 48/92/12 47/90/47
f 43/79/29 44/81/15 46/88/13 45/84/46
f 18/33/26 14/27/23 43/80/29 45/85/46
f 4/6/1 12/24/3 42/78/45 38/70/17
f 22/40/32 18/33/26 45/85/46 47/89/47
f 12/24/3 16/30/14 44/82/15 42/78/45
f 24/46/11 22/41/32 47/90/47 48/92/12
f 2/3/8 6/12/6 40/74/25 37/68/44
f 10/21/16 2/3/8 37/68/44 41/76/28
f 81/134/48 82/135/49 83/137/49 84/139/48
f 77/128/34 64/108/34 89/148/34 90/149/34
s 0
f 67/111/50 68/112/50 103/165/50 102/164/50
s 1
f 65/109/42 66/110/42 62/106/42 78/129/42
f 65/109/42 78/129/42 69/114/42 97/157/42
f 68/113/51 83/138/49 82/136/49 91/150/52
f 95/155/53 93/153/53 96/156/53 98/158/53
f 77/128/34 90/149/34 94/154/34 70/115/34
f 95/155/53 98/158/53 100/160/53 99/159/53
f 68/113/51 91/150/52 104/168/54 103/166/55
f 80/132/56 79/130/57 76/126/58 75/124/59
f 77/128/34 70/115/34 76/127/58 79/131/57
f 61/105/60 73/120/61 74/122/62 63/107/63
f 69/114/42 78/129/42 80/133/56 75/125/59
f 86/142/64 87/144/65 88/146/66 85/140/67
f 61/105/60 63/107/63 87/145/65 86/143/64
f 74/123/62 73/121/61 85/141/67 88/147/66
f 63/107/63 74/123/62 88/147/66 87/145/65
f 73/121/61 61/105/60 86/143/64 85/141/67
f 102/163/68 103/167/55 104/169/54 101/161/69
f 102/163/68 101/161/69 106/174/70 105/171/71
s 0
f 91/151/72 92/152/72 101/162/72 104/170/72
f 71/116/53 72/118/53 105/172/53 106/175/53
f 92/152/73 71/117/73 106/176/73 101/162/73
f 72/119/74 67/111/74 102/164/74 105/173/74
