# Blender 3.5.0
# www.blender.org
mtllib stationary_cup.mtl
o Cylinder
v -66.905304 -3.312822 -3.986933
v -66.905304 6.668600 -3.986933
v -65.379570 -3.312822 -3.683446
v -65.379570 6.668600 -3.683446
v -64.086113 -3.312822 -2.819188
v -64.086113 6.668600 -2.819188
v -63.221859 -3.312822 -1.525733
v -63.221859 6.668600 -1.525733
v -62.918369 -3.312822 0.000000
v -62.918369 6.668600 0.000000
v -63.221859 -3.312822 1.525733
v -63.221859 6.668600 1.525733
v -64.086113 -3.312822 2.819187
v -64.086113 6.668600 2.819187
v -65.379570 -3.312822 3.683445
v -65.379570 6.668600 3.683445
v -66.905304 -3.312822 3.986933
v -66.905304 6.668600 3.986933
v -68.431038 -3.312822 3.683446
v -68.431038 6.668600 3.683446
v -69.724487 -3.312822 2.819188
v -69.724487 6.668600 2.819188
v -70.588753 -3.312822 1.525734
v -70.588753 6.668600 1.525734
v -70.892235 -3.312822 -0.000000
v -70.892235 6.668600 -0.000000
v -70.588753 -3.312822 -1.525734
v -70.588753 6.668600 -1.525734
v -69.724487 -3.312822 -2.819189
v -69.724487 6.668600 -2.819189
v -68.431038 -3.312822 -3.683447
v -68.431038 6.668600 -3.683447
v -65.335594 6.668600 -3.789614
v -66.905304 6.668600 -4.101849
v -64.004860 6.668600 -2.900445
v -63.115692 6.668600 -1.569709
v -62.803455 6.668600 0.000000
v -63.115692 6.668600 1.569710
v -64.004860 6.668600 2.900445
v -65.335594 6.668600 3.789613
v -66.905304 6.668600 4.101849
v -68.475014 6.668600 3.789614
v -69.805748 6.668600 2.900446
v -70.694916 6.668600 1.569710
v -71.007156 6.668600 -0.000000
v -70.694916 6.668600 -1.569710
v -69.805748 6.668600 -2.900446
v -68.475014 6.668600 -3.789615
v -65.335594 7.048407 -3.789614
v -66.905304 7.048407 -4.101849
v -64.004860 7.048407 -2.900445
v -63.115692 7.048407 -1.569709
v -62.803455 7.048407 0.000000
v -63.115692 7.048407 1.569710
v -64.004860 7.048407 2.900445
v -65.335594 7.048407 3.789613
v -66.905304 7.048407 4.101849
v -68.475014 7.048407 3.789614
v -69.805748 7.048407 2.900446
v -70.694916 7.048407 1.569710
v -71.007156 7.048407 -0.000000
v -70.694916 7.048407 -1.569710
v -69.805748 7.048407 -2.900446
v -68.475014 7.048407 -3.789615
v -65.445244 7.048407 -3.524891
v -66.905304 7.048407 -3.815315
v -64.207466 7.048407 -2.697835
v -63.380413 7.048407 -1.460058
v -63.089989 7.048407 0.000000
v -63.380413 7.048407 1.460058
v -64.207466 7.048407 2.697834
v -65.445244 7.048407 3.524891
v -66.905304 7.048407 3.815314
v -68.365364 7.048407 3.524891
v -69.603134 7.048407 2.697835
v -70.430191 7.048407 1.460058
v -70.720619 7.048407 -0.000000
v -70.430191 7.048407 -1.460058
v -69.603134 7.048407 -2.697836
v -68.365356 7.048407 -3.524892
v -65.445244 -3.097890 -3.524891
v -66.905304 -3.097890 -3.815315
v -64.207474 -3.097890 -2.697835
v -63.380413 -3.097890 -1.460058
v -63.089989 -3.097890 0.000000
v -63.380413 -3.097890 1.460058
v -64.207474 -3.097890 2.697834
v -65.445244 -3.097890 3.524891
v -66.905304 -3.097890 3.815314
v -68.365364 -3.097890 3.524891
v -69.603142 -3.097890 2.697835
v -70.430199 -3.097890 1.460058
v -70.720619 -3.097890 -0.000000
v -70.430199 -3.097890 -1.460058
v -69.603142 -3.097890 -2.697836
v -68.365364 -3.097890 -3.524892
v -66.905304 -3.312822 -3.986933
v -65.379570 -3.312822 -3.683446
v -64.086113 -3.312822 -2.819188
v -63.221859 -3.312822 -1.525733
v -62.918369 -3.312822 0.000000
v -63.221859 -3.312822 1.525733
v -64.086113 -3.312822 2.819187
v -65.379570 -3.312822 3.683445
v -66.905304 -3.312822 3.986933
v -68.431038 -3.312822 3.683446
v -69.724487 -3.312822 2.819188
v -70.588753 -3.312822 1.525734
v -70.892235 -3.312822 -0.000000
v -70.588753 -3.312822 -1.525734
v -69.724487 -3.312822 -2.819189
v -68.431038 -3.312822 -3.683447
v -65.335594 6.668600 -3.789614
v -66.905304 6.668600 -4.101849
v -64.004860 6.668600 -2.900445
v -63.115692 6.668600 -1.569709
v -62.803455 6.668600 0.000000
v -63.115692 6.668600 1.569710
v -64.004860 6.668600 2.900445
v -65.335594 6.668600 3.789613
v -66.905304 6.668600 4.101849
v -68.475014 6.668600 3.789614
v -69.805748 6.668600 2.900446
v -70.694916 6.668600 1.569710
v -71.007156 6.668600 -0.000000
v -70.694916 6.668600 -1.569710
v -69.805748 6.668600 -2.900446
v -68.475014 6.668600 -3.789615
v -65.335594 7.048407 -3.789614
v -66.905304 7.048407 -4.101849
v -64.004860 7.048407 -2.900445
v -63.115692 7.048407 -1.569709
v -62.803455 7.048407 0.000000
v -63.115692 7.048407 1.569710
v -64.004860 7.048407 2.900445
v -65.335594 7.048407 3.789613
v -66.905304 7.048407 4.101849
v -68.475014 7.048407 3.789614
v -69.805748 7.048407 2.900446
v -70.694916 7.048407 1.569710
v -71.007156 7.048407 -0.000000
v -70.694916 7.048407 -1.569710
v -69.805748 7.048407 -2.900446
v -68.475014 7.048407 -3.789615
v -65.445244 7.048407 -3.524891
v -66.905304 7.048407 -3.815315
v -64.207466 7.048407 -2.697835
v -63.380413 7.048407 -1.460058
v -63.089989 7.048407 0.000000
v -63.380413 7.048407 1.460058
v -64.207466 7.048407 2.697834
v -65.445244 7.048407 3.524891
v -66.905304 7.048407 3.815314
v -68.365364 7.048407 3.524891
v -69.603134 7.048407 2.697835
v -70.430191 7.048407 1.460058
v -70.720619 7.048407 -0.000000
v -70.430191 7.048407 -1.460058
v -69.603134 7.048407 -2.697836
v -68.365356 7.048407 -3.524892
v -65.445244 -3.097890 -3.524891
v -66.905304 -3.097890 -3.815315
v -64.207474 -3.097890 -2.697835
v -63.380413 -3.097890 -1.460058
v -63.089989 -3.097890 0.000000
v -63.380413 -3.097890 1.460058
v -64.207474 -3.097890 2.697834
v -65.445244 -3.097890 3.524891
v -66.905304 -3.097890 3.815314
v -68.365364 -3.097890 3.524891
v -69.603142 -3.097890 2.697835
v -70.430199 -3.097890 1.460058
v -70.720619 -3.097890 -0.000000
v -70.430199 -3.097890 -1.460058
v -69.603142 -3.097890 -2.697836
v -68.365364 -3.097890 -3.524892
v -65.379570 6.668600 -3.683446
v -66.905304 6.668600 -3.986933
v -64.086113 6.668600 -2.819188
v -63.221859 6.668600 -1.525733
v -62.918369 6.668600 0.000000
v -63.221859 6.668600 1.525733
v -64.086113 6.668600 2.819187
v -65.379570 6.668600 3.683445
v -66.905304 6.668600 3.986933
v -68.431038 6.668600 3.683446
v -69.724487 6.668600 2.819188
v -70.588753 6.668600 1.525734
v -70.892235 6.668600 -0.000000
v -70.588753 6.668600 -1.525734
v -69.724487 6.668600 -2.819189
v -68.431038 6.668600 -3.683447
v -70.430191 6.621069 1.460058
v -70.720619 6.621069 -0.000000
v -63.089989 6.621069 0.000000
v -63.380413 6.621069 1.460058
v -70.430191 6.621069 -1.460058
v -64.207466 6.621069 2.697834
v -69.603134 6.621069 -2.697836
v -65.445244 6.621069 3.524891
v -68.365356 6.621069 -3.524892
v -66.905304 6.621069 3.815314
v -66.905304 6.621069 -3.815315
v -65.445244 6.621069 -3.524891
v -68.365364 6.621069 3.524891
v -64.207466 6.621069 -2.697835
v -69.603134 6.621069 2.697835
v -63.380413 6.621069 -1.460058
vn -0.0000 -0.0000 -1.0000
vn 0.3827 -0.0000 -0.9239
vn 0.7071 -0.0000 -0.7071
vn 0.9239 -0.0000 -0.3827
vn 1.0000 -0.0000 -0.0000
vn 0.9239 -0.0000 0.3827
vn 0.7071 -0.0000 0.7071
vn 0.3827 -0.0000 0.9239
vn -0.0000 -0.0000 1.0000
vn -0.3827 -0.0000 0.9239
vn -0.7071 -0.0000 0.7071
vn -0.9239 -0.0000 0.3827
vn -1.0000 -0.0000 -0.0000
vn -0.9239 -0.0000 -0.3827
vn -0.7071 -0.0000 -0.7071
vn -0.0000 -1.0000 -0.0000
vn -0.3827 -0.0000 -0.9239
vn -0.0000 1.0000 -0.0000
vt 0.406104 0.558107
vt 0.465317 0.574925
vt 0.398711 0.555044
vt 0.470975 0.580584
vt 0.393053 0.549386
vt 0.474038 0.587976
vt 0.389991 0.541993
vt 0.474038 0.595978
vt 0.389991 0.533991
vt 0.470975 0.603371
vt 0.393053 0.526598
vt 0.465317 0.609029
vt 0.398711 0.520940
vt 0.457924 0.612092
vt 0.406104 0.517878
vt 0.449922 0.612092
vt 0.414106 0.517878
vt 0.442529 0.609029
vt 0.421499 0.520940
vt 0.436870 0.603371
vt 0.427157 0.526598
vt 0.433809 0.595978
vt 0.430220 0.533991
vt 0.433809 0.587976
vt 0.430220 0.541993
vt 0.436871 0.580584
vt 0.427157 0.549386
vt 0.442529 0.574925
vt 0.421499 0.555044
vt 0.449922 0.571863
vt 0.414106 0.558107
vt 0.457924 0.571863
vt 0.445304 0.556773
vt 0.439483 0.562595
vt 0.451125 0.550952
vt 0.456947 0.545131
vt 0.462768 0.539309
vt 0.468590 0.533488
vt 0.474411 0.527666
vt 0.480232 0.521845
vt 0.486054 0.516024
vt 0.398733 0.603345
vt 0.491875 0.510202
vt 0.404554 0.597523
vt 0.410376 0.591702
vt 0.416197 0.585880
vt 0.422018 0.580059
vt 0.427840 0.574238
vt 0.433661 0.568416
vt 0.424187 0.609521
vt 0.416581 0.612671
vt 0.430008 0.603699
vt 0.433158 0.596093
vt 0.433158 0.587861
vt 0.430008 0.580255
vt 0.424187 0.574433
vt 0.478851 0.520464
vt 0.408348 0.571283
vt 0.400742 0.574433
vt 0.394920 0.580255
vt 0.391770 0.587861
vt 0.391770 0.596093
vt 0.394920 0.603700
vt 0.400742 0.609521
vt 0.408348 0.612671
vt 0.443655 0.561631
vt 0.438240 0.567046
vt 0.449070 0.556216
vt 0.454484 0.550802
vt 0.459899 0.545387
vt 0.465314 0.539972
vt 0.470729 0.534557
vt 0.476143 0.529143
vt 0.481558 0.523728
vt 0.400337 0.604949
vt 0.486973 0.518313
vt 0.405752 0.599534
vt 0.411167 0.594120
vt 0.393215 0.595806
vt 0.421996 0.583290
vt 0.427411 0.577875
vt 0.432826 0.572461
vt 0.122930 0.987210
vt 0.138118 0.987210
vt 0.107742 0.987210
vt 0.092553 0.987210
vt 0.077365 0.987210
vt 0.062177 0.987210
vt 0.046988 0.987210
vt 0.031800 0.987210
vt 0.016612 0.987210
vt 0.001423 0.987210
vt 0.244437 0.987210
vt 0.229249 0.987210
vt 0.214060 0.987210
vt 0.451855 0.549861
vt 0.183684 0.987210
vt 0.168495 0.987210
vt 0.153307 0.987210
vt 0.140312 0.888850
vt 0.124725 0.888850
vt 0.109138 0.888850
vt 0.093550 0.888850
vt 0.077963 0.888850
vt 0.062376 0.888850
vt 0.046788 0.888850
vt 0.031201 0.888850
vt 0.015614 0.888850
vt 0.000027 0.888850
vt 0.249423 0.888850
vt 0.233836 0.888850
vt 0.218249 0.888850
vt 0.202661 0.888850
vt 0.187074 0.888850
vt 0.171487 0.888850
vt 0.155900 0.888850
vt 0.471467 0.580255
vt 0.465646 0.574434
vt 0.474617 0.587861
vt 0.474617 0.596093
vt 0.471467 0.603699
vt 0.465645 0.609521
vt 0.458039 0.612671
vt 0.449807 0.612671
vt 0.442200 0.609521
vt 0.436379 0.603699
vt 0.433229 0.596094
vt 0.433229 0.587861
vt 0.436380 0.580255
vt 0.442201 0.574434
vt 0.449807 0.571283
vt 0.458040 0.571283
vt 0.443923 0.555392
vt 0.438101 0.561213
vt 0.449744 0.549571
vt 0.455565 0.543749
vt 0.461387 0.537928
vt 0.467208 0.532106
vt 0.473029 0.526285
vt 0.416581 0.571283
vt 0.484672 0.514642
vt 0.397351 0.601963
vt 0.490494 0.508821
vt 0.403173 0.596142
vt 0.408994 0.590320
vt 0.414816 0.584499
vt 0.420637 0.578678
vt 0.426458 0.572856
vt 0.432280 0.567035
vt 0.423368 0.608295
vt 0.416293 0.611226
vt 0.428782 0.602881
vt 0.431713 0.595806
vt 0.431713 0.588148
vt 0.428782 0.581074
vt 0.423368 0.575659
vt 0.416293 0.572728
vt 0.408635 0.572729
vt 0.401561 0.575659
vt 0.396146 0.581074
vt 0.393215 0.588148
vt 0.416581 0.588705
vt 0.396146 0.602881
vt 0.401561 0.608295
vt 0.408635 0.611226
vt 0.482007 0.537372
vt 0.479076 0.544447
vt 0.482007 0.529715
vt 0.479076 0.522640
vt 0.473662 0.517225
vt 0.466587 0.514295
vt 0.458929 0.514295
vt 0.451855 0.517225
vt 0.446440 0.522640
vt 0.443509 0.529714
vt 0.443509 0.537372
vt 0.446440 0.544447
vt 0.198872 0.987210
vt 0.458929 0.552792
vt 0.466587 0.552792
vt 0.473662 0.549862
vt 0.124725 0.988864
vt 0.140312 0.988864
vt 0.109138 0.988864
vt 0.093550 0.988864
vt 0.077963 0.988864
vt 0.062376 0.988864
vt 0.046788 0.988864
vt 0.031201 0.988864
vt 0.015613 0.988864
vt 0.000026 0.988864
vt 0.249424 0.988864
vt 0.233836 0.988864
vt 0.218249 0.988864
vt 0.202662 0.988864
vt 0.187074 0.988864
vt 0.171487 0.988864
vt 0.155900 0.988864
vt 0.214060 0.888050
vt 0.409612 0.592565
vt 0.198872 0.888051
vt 0.415027 0.587150
vt 0.077365 0.888051
vt 0.458345 0.543833
vt 0.062177 0.888051
vt 0.463760 0.538418
vt 0.183683 0.888051
vt 0.420442 0.581736
vt 0.046988 0.888051
vt 0.469174 0.533003
vt 0.168495 0.888051
vt 0.425856 0.576321
vt 0.031800 0.888050
vt 0.474589 0.527588
vt 0.153307 0.888051
vt 0.431271 0.570906
vt 0.016612 0.888050
vt 0.480004 0.522174
vt 0.138118 0.888051
vt 0.436686 0.565491
vt 0.122930 0.888051
vt 0.442101 0.560077
vt 0.001423 0.888050
vt 0.244437 0.888050
vt 0.398783 0.603395
vt 0.485419 0.516759
vt 0.107742 0.888051
vt 0.447515 0.554662
vt 0.229248 0.888050
vt 0.404198 0.597980
vt 0.092553 0.888051
vt 0.452930 0.549247
s 1
usemtl Material.001
f 97/100/1 178/183/1 177/182/2 98/101/2
f 98/101/2 177/182/2 179/184/3 99/102/3
f 99/102/3 179/184/3 180/185/4 100/103/4
f 100/103/4 180/185/4 181/186/5 101/104/5
f 101/104/5 181/186/5 182/187/6 102/105/6
f 102/105/6 182/187/6 183/188/7 103/106/7
f 103/106/7 183/188/7 184/189/8 104/107/8
f 104/107/8 184/189/8 185/190/9 105/108/9
f 105/108/9 185/190/9 186/191/10 106/109/10
f 106/110/10 186/192/10 187/193/11 107/111/11
f 107/111/11 187/193/11 188/194/12 108/112/12
f 108/112/12 188/194/12 189/195/13 109/113/13
f 109/113/13 189/195/13 190/196/14 110/114/14
f 110/114/14 190/196/14 191/197/15 111/115/15
f 6/6/16 4/4/16 113/117/16 115/119/16
f 111/115/15 191/197/15 192/198/17 112/116/17
f 112/116/17 192/198/17 178/183/1 97/100/1
f 1/1/16 3/3/16 5/5/16 7/7/16 9/9/16 11/11/16 13/13/16 15/15/16 17/17/16 19/19/16 21/21/16 23/23/16 25/25/16 27/27/16 29/29/16 31/31/16
f 35/35/3 33/33/2 129/133/2 131/135/3
f 16/16/16 14/14/16 119/123/16 120/124/16
f 26/26/16 24/24/16 124/128/16 125/129/16
f 12/12/16 10/10/16 117/121/16 118/122/16
f 22/22/16 20/20/16 122/126/16 123/127/16
f 32/32/16 30/30/16 127/131/16 128/132/16
f 8/8/16 6/6/16 115/119/16 116/120/16
f 18/18/16 16/16/16 120/124/16 121/125/16
f 4/4/16 2/2/16 114/118/16 113/117/16
f 28/28/16 26/26/16 125/129/16 126/130/16
f 14/14/16 12/12/16 118/122/16 119/123/16
f 24/24/16 22/22/16 123/127/16 124/128/16
f 2/2/16 32/32/16 128/132/16 114/118/16
f 10/10/16 8/8/16 116/120/16 117/121/16
f 20/20/16 18/18/16 121/125/16 122/126/16
f 30/30/16 28/28/16 126/130/16 127/131/16
f 136/140/18 55/56/18 151/156/18 152/157/18
f 43/44/11 42/42/10 138/142/10 139/144/11
f 36/36/4 35/35/3 131/135/3 132/136/4
f 44/45/12 43/44/11 139/144/11 140/145/12
f 37/37/5 36/36/4 132/136/4 133/137/5
f 45/46/13 44/45/12 140/145/12 141/146/13
f 38/38/6 37/37/5 133/137/5 134/138/6
f 46/47/14 45/46/13 141/146/13 142/147/14
f 39/39/7 38/38/6 134/138/6 135/139/7
f 47/48/15 46/47/14 142/147/14 143/148/15
f 40/40/8 39/39/7 135/139/7 56/57/8
f 48/49/17 47/48/15 143/148/15 144/149/17
f 41/41/9 40/40/8 56/57/8 137/141/9
f 33/33/2 34/34/1 130/134/1 129/133/2
f 34/34/1 48/49/17 144/149/17 130/134/1
f 42/43/10 41/41/9 137/141/9 138/143/10
f 194/201/5 193/199/4 92/95/4 173/178/5
f 64/65/18 63/64/18 159/164/18 160/165/18
f 57/58/18 136/140/18 152/157/18 153/158/18
f 49/50/18 50/51/18 146/151/18 145/150/18
f 50/51/18 64/65/18 160/165/18 146/151/18
f 58/59/18 57/58/18 153/158/18 154/159/18
f 51/52/18 49/50/18 145/150/18 147/152/18
f 59/60/18 58/59/18 154/159/18 155/160/18
f 52/53/18 51/52/18 147/152/18 148/153/18
f 60/61/18 59/60/18 155/160/18 156/161/18
f 53/54/18 52/53/18 148/153/18 149/154/18
f 61/62/18 60/61/18 156/161/18 77/79/18
f 54/55/18 53/54/18 149/154/18 150/155/18
f 62/63/18 61/62/18 77/79/18 158/163/18
f 55/56/18 54/55/18 150/155/18 151/156/18
f 63/64/18 62/63/18 158/163/18 159/164/18
f 161/166/18 162/167/18 176/181/18 175/180/18 174/179/18 93/96/18 172/177/18 171/176/18 170/175/18 169/174/18 168/173/18 167/172/18 166/171/18 165/170/18 164/169/18 163/168/18
f 196/205/14 195/203/13 85/87/13 86/88/14
f 197/207/6 194/201/5 173/178/5 94/97/6
f 198/209/15 196/205/14 86/88/14 87/89/15
f 199/211/7 197/207/6 94/97/6 95/98/7
f 200/213/17 198/209/15 87/89/15 88/90/17
f 201/215/8 199/211/7 95/98/7 96/99/8
f 202/217/1 200/213/17 88/90/17 89/91/1
f 204/221/10 203/219/9 82/84/9 81/83/10
f 203/219/9 201/215/8 96/99/8 82/84/9
f 205/223/2 202/217/1 89/91/1 90/92/2
f 206/227/11 204/221/10 81/83/10 83/85/11
f 207/229/3 205/224/2 90/93/2 91/94/3
f 208/231/12 206/227/11 83/85/11 84/86/12
f 193/199/4 207/229/3 91/94/3 92/95/4
f 195/203/13 208/231/12 84/86/12 85/87/13
f 69/70/13 68/69/12 208/232/12 195/204/13
f 76/78/4 75/77/3 207/230/3 193/200/4
f 68/69/12 67/68/11 206/228/11 208/232/12
f 75/77/3 74/75/2 205/225/2 207/230/3
f 67/68/11 65/66/10 204/222/10 206/228/11
f 74/76/2 73/74/1 202/218/1 205/226/2
f 66/67/9 80/82/8 201/216/8 203/220/9
f 65/66/10 66/67/9 203/220/9 204/222/10
f 73/74/1 72/73/17 200/214/17 202/218/1
f 80/82/8 79/81/7 199/212/7 201/216/8
f 72/73/17 71/72/15 198/210/15 200/214/17
f 79/81/7 78/80/6 197/208/6 199/212/7
f 71/72/15 70/71/14 196/206/14 198/210/15
f 78/80/6 157/162/5 194/202/5 197/208/6
f 70/71/14 69/70/13 195/204/13 196/206/14
f 157/162/5 76/78/4 193/200/4 194/202/5
