# Blender 3.5.0
# www.blender.org
mtllib office_wall.mtl
o Cube
v 1.450000 0.700000 -1.950000
v 1.450000 -0.700000 -1.950000
v 1.450000 0.700000 1.950000
v 1.450000 -0.700000 1.950000
v -1.450000 0.700000 -1.950000
v -1.450000 -0.700000 -1.950000
v -1.450000 0.700000 1.950000
v -1.450000 -0.700000 1.950000
v 1.500000 0.700000 2.000000
v -1.500000 0.700000 2.000000
v 1.500000 0.700000 -2.000000
v -1.500000 0.700000 -2.000000
v -1.500000 -0.700000 -2.000000
v -1.500000 -0.700000 2.000000
v 1.500000 -0.700000 -2.000000
v 1.500000 -0.700000 2.000000
vn 1.0000 -0.0000 -0.0000
vn -0.0000 -0.0000 1.0000
vn -1.0000 -0.0000 -0.0000
vn -0.0000 -0.0000 -1.0000
vn -0.0000 1.0000 -0.0000
vn -0.0000 -1.0000 -0.0000
vt 0.631250 0.506250
vt 0.631250 0.506250
vt 0.368750 0.506250
vt 0.631250 0.743750
vt 0.631250 0.743750
vt 0.368750 0.743750
vt 0.868750 0.506250
vt 0.868750 0.506250
vt 0.131250 0.506250
vt 0.868750 0.743750
vt 0.868750 0.743750
vt 0.131250 0.743750
vt 0.625000 0.750000
vt 0.625000 1.000000
vt 0.625000 0.000000
vt 0.875000 0.750000
vt 0.625000 0.500000
vt 0.625000 0.250000
vt 0.875000 0.500000
vt 0.375000 0.250000
vt 0.125000 0.500000
vt 0.375000 1.000000
vt 0.375000 0.000000
vt 0.125000 0.750000
vt 0.375000 0.500000
vt 0.375000 0.750000
s 0
usemtl Material
f 5/7/1 7/10/1 8/11/1 6/8/1
f 16/26/2 9/13/2 10/14/2 14/22/2
f 14/23/3 10/15/3 12/18/3 13/20/3
f 15/25/1 11/17/1 9/13/1 16/26/1
f 13/20/4 12/18/4 11/17/4 15/25/4
f 3/4/5 7/10/5 10/16/5 9/13/5
f 1/1/5 3/4/5 9/13/5 11/17/5
f 7/10/5 5/7/5 12/19/5 10/16/5
f 5/7/5 1/1/5 11/17/5 12/19/5
f 7/10/4 3/4/4 4/5/4 8/11/4
f 1/1/2 5/7/2 6/8/2 2/2/2
f 3/4/3 1/1/3 2/2/3 4/5/3
f 6/9/6 8/12/6 14/24/6 13/21/6
f 2/3/6 6/9/6 13/21/6 15/25/6
f 8/12/6 4/6/6 16/26/6 14/24/6
f 4/6/6 2/3/6 15/25/6 16/26/6
